<?xml version="1.0" encoding="UTF-8"?>
<svg id="Illustration" xmlns="http://www.w3.org/2000/svg" xmlns:xlink="http://www.w3.org/1999/xlink" viewBox="0 0 1046.1 1055.76">
  <defs>
    <style>
      .cls-1 {
        fill: url(#linear-gradient-2);
      }

      .cls-2, .cls-3 {
        fill: #fff;
      }

      .cls-4 {
        opacity: .7;
      }

      .cls-4, .cls-5 {
        fill: #bdd0fb;
      }

      .cls-6 {
        opacity: .43;
      }

      .cls-6, .cls-7, .cls-8 {
        fill: none;
      }

      .cls-9 {
        fill: #171a21;
      }

      .cls-10 {
        fill: #182836;
      }

      .cls-11 {
        fill: url(#linear-gradient-6);
      }

      .cls-12 {
        fill: #1b2838;
      }

      .cls-13 {
        fill: #91b3fa;
      }

      .cls-7 {
        opacity: .68;
      }

      .cls-14 {
        fill: #7d97f4;
      }

      .cls-15 {
        fill: url(#linear-gradient-5);
      }

      .cls-8 {
        opacity: .5;
      }

      .cls-16 {
        fill: #2a475e;
      }

      .cls-17 {
        fill: url(#linear-gradient-7);
      }

      .cls-18 {
        fill: #87b2c7;
        opacity: .52;
      }

      .cls-3 {
        stroke: #fff;
        stroke-miterlimit: 10;
      }

      .cls-19 {
        fill: url(#linear-gradient-3);
      }

      .cls-20 {
        fill: url(#linear-gradient);
      }

      .cls-21 {
        fill: url(#linear-gradient-4);
      }

      .cls-22 {
        fill: url(#linear-gradient-8);
      }

      .cls-23 {
        fill: #263238;
      }
    </style>
    <linearGradient id="linear-gradient" x1="1135.45" y1="1070.05" x2="350.32" y2="383.06" gradientTransform="translate(1046.1) rotate(-180) scale(1 -1)" gradientUnits="userSpaceOnUse">
      <stop offset="0" stop-color="#dae3fe"/>
      <stop offset="1" stop-color="#e9effd"/>
    </linearGradient>
    <linearGradient id="linear-gradient-2" x1="-6427.27" y1="1008.9" x2="-6434.23" y2="954.55" gradientTransform="translate(6736.86)" gradientUnits="userSpaceOnUse">
      <stop offset="0" stop-color="#febbba"/>
      <stop offset="1" stop-color="#ff928e"/>
    </linearGradient>
    <linearGradient id="linear-gradient-3" x1="-6579.22" y1="1027.53" x2="-6586" y2="974.56" xlink:href="#linear-gradient-2"/>
    <linearGradient id="linear-gradient-4" x1="-6528.02" y1="679.66" x2="-6433.07" y2="679.66" xlink:href="#linear-gradient-2"/>
    <linearGradient id="linear-gradient-5" x1="-6440.52" y1="560.63" x2="-6263.21" y2="560.63" xlink:href="#linear-gradient-2"/>
    <linearGradient id="linear-gradient-6" x1="-6504.36" y1="461.18" x2="-6442.65" y2="397.87" xlink:href="#linear-gradient-2"/>
    <linearGradient id="linear-gradient-7" x1="-6414.86" y1="357.98" x2="-6491.8" y2="459.76" xlink:href="#linear-gradient-2"/>
    <linearGradient id="linear-gradient-8" x1="-6527.54" y1="438.58" x2="-6465.84" y2="375.27" xlink:href="#linear-gradient-2"/>
  </defs>
  <path class="cls-20" d="m44.08,713.27c101.47,238.92,371.76,372.77,606.16,336.66,38.14-5.88,142.71-23.38,235.29-105.94,178.22-158.94,216.33-473.65,72.57-695.44C853.47,87.13,665.9-4.37,487.67.21c-38.39.99-185.52,7.06-314.82,113.68-18.99,15.66-60.88,52.87-98.63,111.91C-14.43,364.42-22.05,557.56,44.08,713.27Z"/>
  <g>
    <path class="cls-13" d="m7.94,486.64c.06-3.36,1.46-6.55,3.89-8.86,2.43-2.31,5.69-3.56,9.04-3.45l271.44,8.67c6.91.22,12.33,5.99,12.13,12.9l-13.39,449.54c-.2,6.82-5.83,12.23-12.65,12.16l-265.98-2.59c-3.34-.03-6.53-1.4-8.86-3.79-2.33-2.39-3.61-5.62-3.55-8.96l7.94-455.63Z"/>
    <g class="cls-6">
      <path class="cls-2" d="m36.26,508.63h241.72c2.35,0,4.24,1.25,4.21,3.48l-.23,21.1c-.02,2.24-1.96,4.65-4.32,4.66l-242.4.2c-2.4,0-4.26-2.6-4.18-4.86l.74-21.04c.08-2.25,2.08-3.54,4.47-3.54Z"/>
      <path class="cls-2" d="m34.69,554.11l242.77-.4c2.36,0,4.25,2.25,4.23,4.5l-.23,21.57c-.02,2.26-1.97,4.4-4.33,4.41l-243.46.67c-2.41,0-4.29-2.14-4.21-4.42l.74-21.76c.08-2.27,2.1-4.55,4.51-4.55Z"/>
      <path class="cls-2" d="m33.05,602.72l243.87-.83c2.37,0,4.28,1.09,4.26,3.36l-.23,21.76c-.02,2.28-1.97,4-4.35,4.01l-244.53,1.09c-2.42.01-4.32-1.71-4.25-4.01l.75-21.96c.08-2.29,2.07-3.41,4.49-3.42Z"/>
      <path class="cls-2" d="m31.45,650.14l244.94-1.25c2.38-.01,4.3,1.53,4.27,3.82l-.24,21.95c-.02,2.3-1.97,3.59-4.36,3.61l-245.61,1.51c-2.43.02-4.36-1.27-4.28-3.59l.76-22.15c.08-2.31,2.1-3.89,4.52-3.9Z"/>
      <path class="cls-2" d="m29.84,697.97l246.02-1.67c2.39-.02,4.31,1.99,4.29,4.29l-.24,22.14c-.03,2.32-2,4.83-4.4,4.85l-246.73,1.96c-2.44.02-4.34-2.49-4.26-4.83l.76-22.35c.08-2.33,2.12-4.38,4.56-4.39Z"/>
      <path class="cls-2" d="m28.21,746.22l247.11-2.11c2.4-.02,4.32,2.45,4.3,4.77l-.24,22.34c-.03,2.34-2,4.42-4.41,4.45l-247.83,2.39c-2.45.02-4.37-2.04-4.29-4.4l.77-22.55c.08-2.35,2.15-4.87,4.6-4.89Z"/>
      <path class="cls-2" d="m26.52,796.59l248.25-2.56c2.41-.02,4.36,1.24,4.33,3.59l-.24,22.53c-.03,2.36-2.01,4.01-4.43,4.04l-248.93,2.84c-2.47.03-4.41-1.59-4.33-3.97l.78-22.75c.08-2.37,2.12-3.69,4.58-3.72Z"/>
      <path class="cls-2" d="m24.86,845.71l249.36-3.01c2.42-.03,4.37,1.71,4.35,4.08l-.25,22.74c-.03,2.38-2.01,3.59-4.44,3.62l-250.05,3.29c-2.48.03-4.44-1.13-4.36-3.54l.78-22.95c.08-2.39,2.14-4.19,4.61-4.22Z"/>
      <path class="cls-2" d="m23.19,895.28l250.48-3.47c2.44-.03,4.39,2.18,4.36,4.57l-.25,22.94c-.03,2.4-2.03,4.87-4.47,4.91l-251.22,3.77c-2.49.04-4.42-2.39-4.34-4.82l.79-23.16c.08-2.41,2.17-4.7,4.65-4.73Z"/>
    </g>
  </g>
  <g>
    <path class="cls-23" d="m618.11,948.72S528.43,398.4,758.04,4.09c2.99-5.14,10.28-5.52,13.73-.67,54.48,76.57,377.37,574.65-153.67,945.3Z"/>
    <path class="cls-18" d="m778.59,164.46s.33,3.02.79,8.72c.48,5.69,1.08,14.06,1.68,24.71.65,10.65,1.15,23.6,1.58,38.46.13,7.43.37,15.34.38,23.67.03,4.17.07,8.44.11,12.82-.02,4.38-.03,8.85-.05,13.43,0,4.57-.06,9.24-.16,14-.09,4.76-.17,9.6-.26,14.53-.16,4.93-.33,9.94-.5,15.02-.08,2.54-.17,5.11-.25,7.69-.12,2.58-.25,5.18-.37,7.79-.26,5.23-.51,10.54-.78,15.9-.3,5.37-.69,10.79-1.04,16.28-.64,10.98-1.6,22.18-2.5,33.57-.4,5.7-1.06,11.43-1.6,17.2-.58,5.77-1.1,11.6-1.75,17.44-.69,5.84-1.38,11.71-2.07,17.62-.35,2.95-.69,5.91-1.04,8.88-.41,2.96-.82,5.92-1.22,8.89-.82,5.94-1.64,11.91-2.47,17.89-.82,5.98-1.87,11.95-2.8,17.95-.98,5.99-1.86,12.01-2.94,18-1.09,5.99-2.18,11.98-3.27,17.98l-1.62,8.99c-.55,3-1.2,5.97-1.8,8.95-1.22,5.96-2.44,11.92-3.65,17.87-1.15,5.96-2.59,11.84-3.93,17.73-1.36,5.88-2.71,11.75-4.06,17.6-2.87,11.65-5.94,23.14-8.85,34.53-3.26,11.29-6.49,22.45-9.66,33.43-3.48,10.88-6.89,21.58-10.24,32.05-3.64,10.37-7.21,20.52-10.68,30.4-3.66,9.81-7.44,19.27-10.97,28.47-.9,2.29-1.76,4.58-2.67,6.82-.95,2.22-1.9,4.43-2.83,6.62-1.87,4.37-3.71,8.66-5.51,12.86-1.8,4.2-3.56,8.32-5.28,12.34-1.86,3.96-3.67,7.83-5.44,11.6-3.54,7.54-6.89,14.7-10.04,21.43-3.4,6.6-6.58,12.79-9.52,18.5-1.47,2.86-2.88,5.6-4.23,8.22-1.35,2.62-2.6,5.14-3.96,7.44-10.47,18.59-16.46,29.22-16.46,29.22l-.02.03c-.22.4-.08.9.31,1.13.39.22.89.09,1.12-.3,0,0,6.21-10.53,17.07-28.95,1.39-2.28,2.69-4.79,4.08-7.39,1.39-2.61,2.85-5.33,4.37-8.18,3.04-5.69,6.33-11.84,9.84-18.41,3.27-6.7,6.74-13.82,10.41-21.33,1.82-3.76,3.69-7.62,5.6-11.57,1.77-4.02,3.57-8.13,5.42-12.33,1.84-4.2,3.73-8.49,5.65-12.85.96-2.18,1.93-4.39,2.91-6.61.94-2.24,1.82-4.53,2.75-6.82,3.64-9.2,7.52-18.66,11.29-28.47,3.58-9.88,7.25-20.04,11.01-30.42,3.41-10.5,6.9-21.22,10.45-32.13,3.22-11.01,6.49-22.2,9.8-33.53,2.96-11.42,6.08-22.96,9-34.64,1.37-5.86,2.75-11.75,4.13-17.65,1.36-5.91,2.83-11.81,4-17.79,1.24-5.96,2.48-11.94,3.72-17.92.61-2.99,1.27-5.98,1.83-8.98l1.65-9.02c1.09-6.02,2.17-12.04,3.26-18.05,1.06-6.02,1.92-12.06,2.89-18.07.91-6.02,1.95-12.01,2.76-18.02.81-6.01,1.62-12,2.42-17.96.4-2.98.8-5.96,1.2-8.93.34-2.98.68-5.95,1.02-8.91.68-5.93,1.35-11.82,2.02-17.68.64-5.86,1.13-11.71,1.7-17.5.52-5.8,1.17-11.54,1.55-17.26.84-11.43,1.83-22.66,2.35-33.68.29-5.51.64-10.95.88-16.34.21-5.39.42-10.71.62-15.96.1-2.62.2-5.23.29-7.82.06-2.59.12-5.16.18-7.71.12-5.1.23-10.13.35-15.07.04-4.94.08-9.8.12-14.57.05-4.77.08-9.45.02-14.03.01-18.34-.52-35.14-1.09-50.02-.67-14.88-1.38-27.85-2.19-38.51-.75-10.67-1.58-19.03-2.17-24.73-.59-5.7-.98-8.74-.98-8.74h0c-.06-.46-.48-.78-.93-.72-.45.06-.76.47-.72.91Z"/>
  </g>
  <g>
    <path class="cls-23" d="m699.39,1002.52s1.98-642.2,305.05-831.16c5.38-3.35,12.48-.79,14.51,5.22,23.59,69.86,124.07,449.18-319.56,825.94Z"/>
    <path class="cls-18" d="m979.1,284.1s-2.64,11.38-7.86,31.17c-2.61,9.89-5.85,21.89-9.74,35.6-3.83,13.73-8.39,29.15-13.48,45.94-5.14,16.77-10.79,34.92-17.06,54.02-3.08,9.57-6.42,19.34-9.73,29.36-3.45,9.97-6.86,20.2-10.53,30.53-3.64,10.34-7.33,20.86-11.22,31.45-3.81,10.62-7.81,21.32-11.85,32.1-1.01,2.7-2.02,5.4-3.03,8.1-1.04,2.7-2.08,5.4-3.12,8.1-2.08,5.41-4.17,10.83-6.26,16.27-4.23,10.85-8.59,21.71-12.95,32.55-4.48,10.8-8.86,21.64-13.41,32.36-2.29,5.35-4.57,10.7-6.85,16.03-1.14,2.66-2.28,5.32-3.42,7.98-1.17,2.64-2.33,5.28-3.5,7.91-4.69,10.51-9.21,21-13.95,31.23-4.71,10.25-9.23,20.44-13.96,30.32-2.33,4.96-4.65,9.87-6.94,14.74-1.14,2.44-2.27,4.87-3.39,7.28-1.16,2.4-2.31,4.79-3.45,7.16-4.6,9.49-9,18.83-13.47,27.82-2.24,4.49-4.45,8.93-6.63,13.29-2.15,4.38-4.27,8.69-6.36,12.93-4.29,8.42-8.43,16.56-12.41,24.37-3.93,7.84-7.92,15.23-11.65,22.3-3.73,7.07-7.15,13.83-10.54,20.1-6.79,12.52-12.71,23.44-17.59,32.44-4.96,8.95-8.87,15.98-11.52,20.77-2.64,4.81-4.04,7.37-4.04,7.37h0c-.25.48-.08,1.05.38,1.3.45.25,1.01.09,1.27-.34,0,0,1.52-2.5,4.38-7.19,2.83-4.7,6.98-11.6,12.26-20.38,2.69-4.36,5.44-9.32,8.51-14.68,3.06-5.36,6.37-11.17,9.9-17.37,6.94-12.47,14.74-26.56,22.84-42.15,4.05-7.79,8.28-15.91,12.65-24.31,2.13-4.23,4.29-8.53,6.48-12.9,2.17-4.38,4.37-8.83,6.6-13.34,8.76-18.12,18.01-37.23,27-57.26,9.07-19.99,18.16-40.78,27.1-62.03,4.56-10.58,8.82-21.39,13.34-32.14,4.45-10.78,8.73-21.67,13.12-32.53,4.25-10.9,8.51-21.81,12.74-32.67,2.07-5.45,4.14-10.89,6.21-16.31,1.03-2.71,2.06-5.42,3.09-8.12,1-2.71,2-5.42,3-8.12,4-10.8,7.97-21.52,11.75-32.17,3.85-10.62,7.52-21.15,11.12-31.52,3.63-10.35,7.02-20.6,10.43-30.59,3.28-10.04,6.59-19.83,9.64-29.41,6.2-19.13,11.8-37.31,16.89-54.12,5.02-16.82,9.55-32.26,13.42-45.99,3.89-13.72,7.15-25.73,9.76-35.63,5.24-19.8,7.89-31.22,7.89-31.22.12-.51-.2-1.02-.71-1.14-.51-.12-1.02.2-1.14.71h0Z"/>
  </g>
  <g>
    <path class="cls-13" d="m173.84,354.64c.07-2.88,1.32-5.61,3.47-7.54,2.15-1.93,5-2.88,7.87-2.63l290.34,25.15c5.4.47,9.71,4.99,9.71,10.4v583.66c0,5.77-5.01,10.01-10.78,10.01H170.42c-2.81,0-5.5-.92-7.47-2.93-1.96-2.01-3.04-4.62-2.97-7.43l13.86-608.7Z"/>
    <g class="cls-7">
      <path class="cls-5" d="m427.73,398.41l22.16,1.5c2.43.16,3.67,2.4,3.67,5.01v532.4c0,2.66-.54,5.83-3,5.83h-23.13c-2.47,0-4.5-2.67-4.5-5.34l.33-534.69c0-2.62,2.01-4.86,4.46-4.7Z"/>
      <path class="cls-4" d="m373.97,394.88l23.18,1.52c2.46.16,4.83,2.44,4.83,5.07l-.56,536.32c0,2.68-2.41,5.36-4.89,5.36h-23.43c-2.5,0-4.17-2.68-4.16-5.38l.9-538.14c0-2.63,1.66-4.91,4.13-4.75Z"/>
      <path class="cls-5" d="m319.51,391.31l23.48,1.54c2.49.16,3.93,2.4,3.92,5.04l-1.14,539.86c0,2.7-1.47,5.39-3.99,5.39h-23.74c-2.54,0-5.2-2.7-5.2-5.41l1.49-541.71c0-2.65,2.66-4.88,5.17-4.72Z"/>
      <path class="cls-5" d="m264.33,387.69l23.79,1.56c2.53.17,4.37,2.44,4.36,5.1l-1.73,543.37c0,2.72-1.89,5.42-4.44,5.42h-24.06c-2.57,0-4.87-2.71-4.86-5.44l2.09-545.24c.01-2.67,2.3-4.93,4.84-4.77Z"/>
      <path class="cls-5" d="m208.42,384.03l24.11,1.58c2.56.17,4.82,2.49,4.81,5.16l-2.33,546.92c-.01,2.73-2.32,5.45-4.91,5.45h-24.38c-2.6,0-4.53-2.73-4.51-5.47l2.7-548.82c.01-2.69,1.94-4.99,4.51-4.82Z"/>
    </g>
  </g>
  <g>
    <path class="cls-5" d="m401.16,475.98c.04-3.05,1.31-5.95,3.53-8.05,2.21-2.1,5.18-3.21,8.23-3.09l231.59,9.29c3.97.16,7.09,3.48,6.99,7.45l-11.76,495.09-234.17-2.86c-3-.04-5.87-1.27-7.96-3.42-2.09-2.15-3.25-5.05-3.21-8.05l6.75-486.37Z"/>
    <g class="cls-8">
      <g>
        <polygon class="cls-2" points="587.67 567.23 624.94 567.24 625.38 503.55 588.03 503.55 587.67 567.23"/>
        <polygon class="cls-2" points="534.18 567.11 571.31 567.12 571.63 503.55 534.42 503.55 534.18 567.11"/>
        <polygon class="cls-2" points="477.93 566.99 514.91 567 515.11 503.55 478.04 503.55 477.93 566.99"/>
        <polygon class="cls-2" points="421.8 567.01 459.43 566.95 460.29 503.55 421.8 503.55 421.8 567.01"/>
      </g>
      <g>
        <polygon class="cls-2" points="587.16 657.67 624.32 657.87 624.75 594.64 587.52 594.52 587.16 657.67"/>
        <polygon class="cls-2" points="533.83 657.38 570.85 657.58 571.17 594.47 534.07 594.35 533.83 657.38"/>
        <polygon class="cls-2" points="477.76 657.08 514.63 657.28 514.82 594.29 477.87 594.18 477.76 657.08"/>
        <polygon class="cls-2" points="421.8 656.79 459.31 656.99 459 594.12 421.8 594.01 421.8 656.79"/>
      </g>
      <g>
        <polygon class="cls-2" points="586.64 750.38 623.67 750.7 624.11 687.88 586.99 687.64 586.64 750.38"/>
        <polygon class="cls-2" points="533.48 749.93 570.38 750.24 570.7 687.54 533.72 687.3 533.48 749.93"/>
        <polygon class="cls-2" points="477.58 749.45 514.33 749.76 514.53 687.18 477.7 686.94 477.58 749.45"/>
        <polygon class="cls-2" points="421.8 748.98 459.2 749.3 458.88 686.83 421.8 686.59 421.8 748.98"/>
      </g>
      <g>
        <polygon class="cls-2" points="586.13 841.02 623.04 841.46 623.47 780.52 586.47 780.16 586.13 841.02"/>
        <polygon class="cls-2" points="533.14 840.4 569.92 840.83 570.23 780.01 533.37 779.65 533.14 840.4"/>
        <polygon class="cls-2" points="477.41 839.75 514.05 840.18 514.24 779.47 477.53 779.12 477.41 839.75"/>
        <polygon class="cls-2" points="421.8 839.11 459.08 839.54 458.77 778.95 421.8 778.59 421.8 839.11"/>
      </g>
      <g>
        <polygon class="cls-2" points="585.61 932.57 622.41 933.12 622.83 872.57 585.95 872.1 585.61 932.57"/>
        <polygon class="cls-2" points="532.79 931.79 569.45 932.33 569.76 871.89 533.02 871.42 532.79 931.79"/>
        <polygon class="cls-2" points="477.24 930.96 513.76 931.5 513.95 871.18 477.36 870.71 477.24 930.96"/>
        <polygon class="cls-2" points="421.8 930.15 458.97 930.7 458.65 870.48 421.8 870.01 421.8 930.15"/>
      </g>
    </g>
  </g>
  <g>
    <rect class="cls-10" x="114.5" y="19.05" width="366.07" height="257.91" rx="21.67" ry="21.67" transform="translate(595.06 296.02) rotate(-180)"/>
    <rect class="cls-16" x="100.32" y="20.32" width="366.07" height="257.91" rx="21.67" ry="21.67" transform="translate(566.7 298.56) rotate(-180)"/>
    <g>
      <path class="cls-3" d="m177.37,214.78V81.54c0-14.14,11.5-25.64,25.64-25.64h172.54c14.14,0,25.64,11.5,25.64,25.64v133.25c0,14.14-11.5,25.64-25.64,25.64h-172.54c-14.14,0-25.64-11.5-25.64-25.64Zm25.64-149.99c-9.23,0-16.75,7.51-16.75,16.75v133.25c0,9.23,7.51,16.75,16.75,16.75h172.54c9.23,0,16.75-7.51,16.75-16.75V81.54c0-9.23-7.51-16.75-16.75-16.75h-172.54Z"/>
      <polygon class="cls-3" points="289.68 148.64 393.69 70.62 388.35 63.5 289.54 137.63 188.22 65.77 183.07 73.02 289.68 148.64"/>
      <rect class="cls-3" x="152.17" y="168.18" width="131.66" height="8.89" transform="translate(-39.47 277.65) rotate(-60.57)"/>
      <rect class="cls-3" x="356.23" y="105.49" width="8.89" height="131.66" transform="translate(-37.89 195.52) rotate(-28.88)"/>
    </g>
  </g>
  <g>
    <rect class="cls-10" x="599.79" y="292.08" width="366.07" height="257.91" rx="21.67" ry="21.67" transform="translate(1565.64 842.07) rotate(-180)"/>
    <rect class="cls-16" x="585.61" y="293.35" width="366.07" height="257.91" rx="21.67" ry="21.67" transform="translate(1537.29 844.61) rotate(-180)"/>
  </g>
  <g>
    <rect class="cls-10" x="475.56" y="780.31" width="366.07" height="257.91" rx="21.67" ry="21.67" transform="translate(1317.18 1818.54) rotate(-180)"/>
    <rect class="cls-16" x="461.38" y="781.58" width="366.07" height="257.91" rx="21.67" ry="21.67" transform="translate(1288.83 1821.08) rotate(-180)"/>
  </g>
  <path class="cls-2" d="m583.79,1003.2c-10.25-1.98-18.95-8.06-25.16-17.59l-5.44-8.33c-4.03-6.17-2.31-14.52,3.82-18.61l34.5-23c7.09-4.73,16.52-3,21.46,3.95l2.68,4.12c2.34,3.6,6.13,5.87,10.41,6.25,4.27.37,8.4-1.22,11.32-4.36l42.01-42.02.11-.11c3.14-2.92,4.72-7.04,4.35-11.32-.37-4.27-2.65-8.07-6.24-10.4l-3.97-2.57-.16-.11c-6.94-4.95-8.68-14.37-3.95-21.46l23-34.5c4.09-6.13,12.44-7.84,18.61-3.82l8.33,5.44c9.53,6.21,15.61,14.92,17.59,25.16,3.07,15.85-3.4,35.35-19.23,57.97-8.78,12.55-63.54,67.3-76.08,76.08h0c-18.97,13.28-35.76,19.98-50.03,19.98-2.74,0-5.39-.25-7.94-.74Zm52.87-26.52c11.78-8.25,65.65-62.12,73.9-73.9,14.39-20.56,20.38-37.78,17.78-51.18-1.54-7.94-6.15-14.47-13.72-19.4l-8.33-5.44c-2.11-1.37-4.96-.79-6.36,1.3l-23,34.5c-2.03,3.04-1.3,7.08,1.64,9.23l3.88,2.51c5.91,3.84,9.65,10.07,10.26,17.09.61,6.99-1.98,13.74-7.09,18.54l-41.8,41.8c-4.8,5.12-11.55,7.7-18.54,7.1-7.02-.61-13.25-4.35-17.1-10.26l-2.52-3.88c-2.15-2.95-6.18-3.67-9.23-1.64l-34.5,23c-2.09,1.4-2.68,4.25-1.3,6.36l5.44,8.33c4.94,7.57,11.46,12.18,19.4,13.72,13.39,2.59,30.62-3.39,51.18-17.79h0Z"/>
  <g>
    <g>
      <path class="cls-9" d="m318.5,733.49c.14,0,.27.01.41,0l179.55-.18c4.44,0,8.03-3.67,8.03-8.19,0-4.52-3.62-8.25-8.05-8.17l-179.55.18c-4.44,0-8.03,3.67-8.03,8.19,0,4.38,3.39,7.95,7.63,8.16Z"/>
      <path class="cls-9" d="m568,554.16c-.06.12-.13.25-.18.38l-75.55,166.13c-1.87,4.11-.12,8.98,3.9,10.88,4.02,1.9,8.87.13,10.66-3.99l75.55-166.13c1.87-4.11.12-8.98-3.9-10.88-3.89-1.84-8.5-.22-10.48,3.62Z"/>
    </g>
    <g>
      <g>
        <path class="cls-9" d="m301.23,1000.51s-1.57,8.73-2.19,19.09c-.26,4.41,3.01,8.25,7.41,8.68,15.33,1.49,50.21,4.23,72.49,1.02,3.12-.45,4.36-4.28,2.05-6.43-9.19-8.56-31.37-25.2-67.88-28.84l-11.88,6.5Z"/>
        <path class="cls-1" d="m293.61,980.84l7.75,18.99c1.06,2.6,3.7,4.22,6.5,3.93,1.9-.2,4.14-.56,6.33-1.23,4.37-1.33,6.84-5.96,5.53-10.34l-5.85-19.56-20.26,8.21Z"/>
        <path class="cls-9" d="m161.13,1015.64s15.52,12.98,21.56,29.64c1.66,4.58-1.85,9.41-6.72,9.41h-31.93c-4.67,0-8.26-4.2-7.44-8.81,2.03-11.5,7.9-30.19,24.54-30.24Z"/>
        <path class="cls-19" d="m141.91,998.74s3.13,13.87,5.54,23.04c.44,1.66,2.21,2.58,3.83,2,4.83-1.73,8.76-2.49,11.62-2.11,1.32.18,2.48-.92,2.49-2.26l.3-23.04-23.79,2.37Z"/>
        <path class="cls-9" d="m224.44,686.57l94.38,287.94s-18.1,11.86-26.73,11.36l-112.11-231.41s-19.62,142.58-10.11,244.95l-32.11,2.45s-52.21-261.59-12.66-351.19l99.34,35.9Z"/>
        <path class="cls-12" d="m180.59,751.98s-.08,0-.12,0c-.5-.06-.86-.52-.79-1.02l3.66-29.07c.06-.5.51-.85,1.02-.79.5.06.86.52.79,1.02l-3.66,29.07c-.06.46-.45.8-.91.8Z"/>
      </g>
      <path class="cls-12" d="m242.13,433.2s-76.47,6.79-65.65,61.28c0,0-42.27,79.55-62.03,173.25-.64,3.05,1.4,6.02,4.47,6.55l127.35,21.8c3.51.6,6.9-1.59,7.79-5.04l30.43-117.59,11.86,54.67,37.67-9.82-31.72-160.66s-4.42-23.44-60.17-24.45Z"/>
      <path class="cls-12" d="m285.13,568.18c-.07,0-.13,0-.2-.02-.51-.11-.84-.62-.72-1.13l10.62-48.74c.11-.51.61-.83,1.13-.72.51.11.84.62.72,1.13l-10.62,48.74c-.1.44-.49.75-.93.75Z"/>
      <path class="cls-21" d="m277.45,713.23c-4.01-2.21-8.71-2.82-13.15-1.71l-8.86,2.21c-1.88.47-3.75-.83-3.97-2.76l-9.17-81.61c-11.46,5.44-28,4.79-33.46,4.4l21.1,96.21h73.85s-26.35-16.73-26.35-16.73Z"/>
      <path class="cls-15" d="m473.66,536.21l-2.23-7.42c-1.28-4.27-4.44-7.72-8.58-9.39l-40.37-16.23s-.61-5.18,8.53-8.7c9.14-3.52,7-13.75,7-13.75,0,0-12.49,5.7-30.76,14.73-10.45,5.17-16.32,14.29-19.43,21.15l-91.48,111.52,10.74,7.38c14.12,9.7,33.55,4.94,41.57-10.2l49.56-95.03c24.88,7.47,50.06,8.9,75.45,5.94Z"/>
      <g>
        <path class="cls-11" d="m266.9,381.17l-23.52,65.83s20.83,16.28,36.02,10.78l11.85-37.73s-9.05-46.12-24.36-38.87Z"/>
        <g>
          <path class="cls-17" d="m337.1,357.53c0,1.01-22.66,64.14-22.66,64.14l-35.77-13.7,12.58-63.02s45.84-4.4,45.84,12.58Z"/>
          <path class="cls-9" d="m297.54,360.3l-9.22,32.65c-.12.42-.18.84-.18,1.28,0,2.66.66,11.83,9.99,10.58,8.47-1.13,16.22-2.04,21.14.28,2.21,1.04,3.27,3.59,2.44,5.89-2.06,5.73-6.94,18.57-12.88,29.08-1.21,2.13-3.85,2.96-6.08,1.95-6.72-3.06-20.7-9.9-30.67-18.04-1.35-1.1-2-2.84-1.68-4.55,1.57-8.35,6.24-33.76,6.44-41.04.19-6.83-7.48-12.05-10.85-14.01-1.11-.64-1.89-1.7-2.19-2.95-1.06-4.4-1.96-14.35,10.74-16.55,2.66-.46,4.39-3,3.85-5.65-1.07-5.26-.73-13,9.26-15.85,10.15-2.9,16.54,3.21,19.79,7.9,1.31,1.9,3.77,2.51,5.88,1.57,1.2-.54,2.65-.56,4.2.75,2.1,1.77,5.29,1.23,6.83-1.04,2.96-4.36,8.34-8.71,17.45-5.76,16.16,5.23,15.39,23.86,9.46,33.99-5.92,10.13-23.12,3.46-31.26-3.25-6.19-5.1-15.61-2.05-19.78-.29-1.32.56-2.3,1.69-2.69,3.06Z"/>
          <path class="cls-22" d="m273.61,390.3s9.56-18.09,3.24-23.77c-6.32-5.68-17.04-4.75-16.75,9.4.36,17.6,13.51,14.38,13.51,14.38Z"/>
        </g>
      </g>
      <path class="cls-12" d="m216.26,634.97c-5.22,0-8.94-.4-9.35-.44l-.68-.08-27.84-129.82c-.11-.51.22-1.02.73-1.13.52-.11,1.02.22,1.13.73l27.56,128.47c4.14.36,26.27,1.83,37.95-6.44l-24.12-112.79,5.03-9.49c.25-.46.82-.64,1.28-.39.46.25.64.82.39,1.28l-4.71,8.88,24.23,113.31-.48.36c-8.44,6.34-22.04,7.54-31.12,7.54Z"/>
    </g>
    <g>
      <path class="cls-14" d="m368.62,748.73c-.73,2.47-70.26,216.09-87.89,270.25-2.03,6.24,3.64,12.37,11.44,12.37,5.44,0,10.18-3.07,11.49-7.44l77.19-256.36-12.23-18.82Z"/>
      <path class="cls-14" d="m406.7,748.73c.73,2.47,70.26,216.09,87.89,270.25,2.03,6.24-3.64,12.37-11.44,12.37-5.44,0-10.18-3.07-11.49-7.44l-77.19-256.36,12.23-18.82Z"/>
      <path class="cls-14" d="m409.59,740.2h-43.31s0,34.78,0,34.78c0,5,4,9.05,8.94,9.05h5.94v78.12c0,3.78,3.03,6.85,6.77,6.85,3.74,0,6.77-3.07,6.77-6.85v-78.12h3.01c6.55,0,11.87-5.38,11.87-12.01v-31.82Z"/>
      <path class="cls-14" d="m233.98,731.84h303.02c4.23,0,7.93,2.31,8.99,5.63l4.23,13.24c1.52,4.76-2.95,9.4-9.05,9.37l-310.93-1.44c-6.03-.03-10.42-4.61-8.95-9.33l3.68-11.8c1.04-3.33,4.75-5.67,9.01-5.67Z"/>
    </g>
  </g>
  <path class="cls-2" d="m684.61,492.65c-2.69-.83-4.95-1.57-6.74-2.16-3.05-1.01-4.87-4.06-4.32-7.23.56-3.2,3.32-5.46,6.57-5.37,17.37.47,37.15-1.75,51.88-3.94-59.64-23.93-62.13-59.13-60.04-74.24,5.26-38.09,49.42-69.37,98.44-69.73,50.01-.35,94.53,19.13,113.44,49.65,10.04,16.22,17.86,43.74-1.93,82.8-37.03,73.07-159.23,42.01-197.29,30.23Zm-4.79-3.15h0s0,0,0,0Zm1.71-10.04h.01s0,0-.01,0Zm97.74-2.8l-22.73,4.81c-1.2.25-21.19,4.43-44.63,6.69,48.12,11.77,132.17,23.17,159.61-30.99,13.93-27.49,14.74-51.52,2.42-71.42-19.12-30.88-65.74-44.42-103.47-44.15-42.73.31-82.58,27.65-87.01,59.7-4.02,29.1,22.71,54.34,73.49,68.9l22.32,6.46Z"/>
</svg>