<?xml version="1.0" encoding="UTF-8"?>
<svg id="OBJECTS" xmlns="http://www.w3.org/2000/svg" viewBox="0 0 108 108">
  <defs>
    <style>
      .cls-1 {
        fill: #66c0f4;
      }
    </style>
  </defs>
  <g>
    <path class="cls-1" d="m54.29,43.46c-5.65,0-10.24,4.6-10.24,10.24s4.6,10.24,10.24,10.24,10.24-4.6,10.24-10.24-4.6-10.24-10.24-10.24Zm0,16.81c-3.62,0-6.56-2.94-6.56-6.56s2.94-6.56,6.56-6.56,6.56,2.94,6.56,6.56-2.94,6.56-6.56,6.56Z"/>
    <path class="cls-1" d="m65.13,40.33c-1.35,0-2.44,1.09-2.44,2.44s1.09,2.44,2.44,2.44,2.44-1.09,2.44-2.44-1.09-2.44-2.44-2.44Z"/>
    <path class="cls-1" d="m62.53,32.98h-17.05c-6.9,0-12.5,5.59-12.5,12.49v17.05c0,6.9,5.59,12.49,12.5,12.49h17.05c6.9,0,12.5-5.59,12.5-12.49v-17.05c0-6.9-5.59-12.49-12.5-12.49Zm8.39,29.36c0,4.74-3.84,8.58-8.58,8.58h-16.67c-4.74,0-8.58-3.84-8.58-8.58v-16.68c0-4.74,3.84-8.58,8.58-8.58h16.67c4.74,0,8.58,3.84,8.58,8.58v16.68Z"/>
  </g>
  <path class="cls-1" d="m54,1.79c28.79,0,52.21,23.42,52.21,52.21s-23.42,52.21-52.21,52.21S1.79,82.79,1.79,54,25.21,1.79,54,1.79Zm0,94.79c23.48,0,42.57-19.1,42.57-42.57S77.48,11.43,54,11.43,11.43,30.52,11.43,54s19.1,42.57,42.57,42.57Z"/>
</svg>