<?xml version="1.0" encoding="UTF-8"?>
<svg id="OBJECTS" xmlns="http://www.w3.org/2000/svg" viewBox="0 0 108 108">
  <defs>
    <style>
      .cls-1 {
        fill: #66c0f4;
      }
    </style>
  </defs>
  <g>
    <rect class="cls-1" x="36.53" y="47.94" width="7.5" height="24.08"/>
    <path class="cls-1" d="m40.28,35.98c-2.4,0-4.35,1.94-4.35,4.34s1.94,4.34,4.35,4.34,4.34-1.95,4.34-4.34-1.94-4.34-4.34-4.34Z"/>
    <path class="cls-1" d="m63.09,47.35c-3.64,0-6.09,1.99-7.09,3.89h-.1v-3.29h-7.18v24.08h7.48v-11.91c0-3.14.59-6.18,4.49-6.18s3.89,3.59,3.89,6.39v11.71h7.48v-13.21c0-6.49-1.4-11.47-8.97-11.47Z"/>
  </g>
  <path class="cls-1" d="m54,106.21C25.21,106.21,1.79,82.79,1.79,54S25.21,1.79,54,1.79s52.21,23.42,52.21,52.21-23.42,52.21-52.21,52.21Zm0-94.79c-23.48,0-42.57,19.1-42.57,42.57s19.1,42.57,42.57,42.57,42.57-19.1,42.57-42.57S77.48,11.43,54,11.43Z"/>
</svg>