<?xml version="1.0" encoding="UTF-8"?>
<svg id="OBJECTS" xmlns="http://www.w3.org/2000/svg" viewBox="0 0 108 108">
  <defs>
    <style>
      .cls-1 {
        fill: #66c0f4;
      }
    </style>
  </defs>
  <path class="cls-1" d="m54,106.21C25.21,106.21,1.79,82.79,1.79,54S25.21,1.79,54,1.79s52.21,23.42,52.21,52.21-23.42,52.21-52.21,52.21Zm0-94.79c-23.48,0-42.57,19.1-42.57,42.57s19.1,42.57,42.57,42.57,42.57-19.1,42.57-42.57S77.48,11.43,54,11.43Z"/>
  <g>
    <path class="cls-1" d="m70.77,69.96l-13.13-19.07-1.48-2.16-9.39-13.64-.78-1.13h-11.54l2.81,4.09,12.49,18.14,1.48,2.15,10.03,14.58.78,1.13h11.54l-2.81-4.09Zm-7.35,1.48l-10.42-15.14-1.48-2.16-12.09-17.57h5.2l9.78,14.21,1.48,2.16,12.74,18.5h-5.2Z"/>
    <polygon class="cls-1" points="51.52 54.14 53 56.29 51.24 58.34 37.74 74.04 34.41 74.04 49.76 56.19 51.52 54.14"/>
    <polygon class="cls-1" points="72.2 33.96 57.65 50.88 55.89 52.93 54.4 50.78 56.16 48.73 66.02 37.25 68.87 33.96 72.2 33.96"/>
  </g>
</svg>